<?xml version="1.0" encoding="UTF-8" standalone="no"?>
<!-- Created with Inkscape (http://www.inkscape.org/) -->
<svg
   xmlns:dc="http://purl.org/dc/elements/1.1/"
   xmlns:cc="http://creativecommons.org/ns#"
   xmlns:rdf="http://www.w3.org/1999/02/22-rdf-syntax-ns#"
   xmlns:svg="http://www.w3.org/2000/svg"
   xmlns="http://www.w3.org/2000/svg"
   xmlns:sodipodi="http://sodipodi.sourceforge.net/DTD/sodipodi-0.dtd"
   xmlns:inkscape="http://www.inkscape.org/namespaces/inkscape"
   width="64px"
   height="64px"
   id="svg2383"
   sodipodi:version="0.32"
   inkscape:version="0.46"
   sodipodi:docname="gitso2.svg"
   inkscape:output_extension="org.inkscape.output.svg.inkscape">
  <defs
     id="defs2385">
    <inkscape:perspective
       sodipodi:type="inkscape:persp3d"
       inkscape:vp_x="-49.09091 : 33.272728 : 1"
       inkscape:vp_y="32 : 1021.3333 : 1"
       inkscape:vp_z="63.454546 : 41.818181 : 1"
       inkscape:persp3d-origin="32 : 21.333333 : 1"
       id="perspective2391" />
    <filter
       inkscape:collect="always"
       id="filter3801">
      <feGaussianBlur
         inkscape:collect="always"
         stdDeviation="0.83932003"
         id="feGaussianBlur3803" />
    </filter>
    <filter
       inkscape:collect="always"
       id="filter4073"
       x="-0.26733964"
       width="1.5346793"
       y="-0.38953975"
       height="1.7790795">
      <feGaussianBlur
         inkscape:collect="always"
         stdDeviation="2.4294898"
         id="feGaussianBlur4075" />
    </filter>
  </defs>
  <sodipodi:namedview
     id="base"
     pagecolor="#ffffff"
     bordercolor="#666666"
     borderopacity="1.0"
     inkscape:pageopacity="0.0"
     inkscape:pageshadow="2"
     inkscape:zoom="5.5"
     inkscape:cx="-0.36363636"
     inkscape:cy="43.090909"
     inkscape:current-layer="layer1"
     showgrid="true"
     inkscape:document-units="px"
     inkscape:grid-bbox="true"
     inkscape:window-width="1679"
     inkscape:window-height="1003"
     inkscape:window-x="1"
     inkscape:window-y="46" />
  <metadata
     id="metadata2388">
    <rdf:RDF>
      <cc:Work
         rdf:about="">
        <dc:format>image/svg+xml</dc:format>
        <dc:type
           rdf:resource="http://purl.org/dc/dcmitype/StillImage" />
      </cc:Work>
    </rdf:RDF>
  </metadata>
  <g
     id="layer1"
     inkscape:label="Layer 1"
     inkscape:groupmode="layer">
    <path
       style="opacity:1;fill:none;fill-rule:evenodd;stroke:#4e9a06;stroke-width:1.70000005;stroke-linecap:butt;stroke-linejoin:bevel;stroke-miterlimit:4;stroke-dasharray:none;stroke-opacity:1;filter:url(#filter3801)"
       d="M 35.545455,37.272727 L 21.909091,21.818182 L 27.181818,17.818182 L 19.181818,15.454545 L 19.727273,11.818182 L 13.181818,14.909091 L 13.181818,14.909091"
       id="path2493" />
    <path
       style="fill:none;fill-rule:evenodd;stroke:#000000;stroke-width:1px;stroke-linecap:butt;stroke-linejoin:miter;stroke-opacity:1"
       d="M 34.727273,36.909091 L 21.090909,21.454546 L 26.363636,17.454546 L 18.363636,15.090909 L 18.909091,11.454545 L 12.363636,14.545455 L 12.363636,14.545455"
       id="path2491" />
    <rect
       style="opacity:0.94999999999999996;fill:#f0fcd4;stroke:#2e3436;stroke-width:1.19999999999999996;stroke-miterlimit:4.50000000000000000;stroke-dasharray:none"
       id="rect3173"
       width="39.272728"
       height="24.363636"
       x="21.272728"
       y="35.636364" />
    <path
       sodipodi:type="arc"
       style="opacity:1;fill:#2e3436;stroke:#729fcf;stroke-width:14.42520363;stroke-miterlimit:4.5;stroke-dasharray:none;stroke-opacity:1"
       id="path2395"
       sodipodi:cx="37.81818"
       sodipodi:cy="22.09091"
       sodipodi:rx="20.727272"
       sodipodi:ry="7.181818"
       d="M 58.545452,22.09091 A 20.727272,7.181818 0 1 1 17.090908,22.09091 A 20.727272,7.181818 0 1 1 58.545452,22.09091 z"
       transform="matrix(0.3348145,0,0,0.7257937,22.610652,31.966556)" />
    <path
       style="fill:none;fill-rule:evenodd;stroke:#000000;stroke-width:1px;stroke-linecap:butt;stroke-linejoin:miter;stroke-opacity:1"
       d="M 34,35.818182 C 34,35.757576 34,35.69697 34,35.818182 z"
       id="path3191" />
    <path
       style="opacity:0.33471075;fill:#ef2929;stroke:#cc0000;stroke-width:1.71099997;stroke-linecap:butt;stroke-linejoin:miter;stroke-miterlimit:4.5;stroke-dasharray:none;stroke-dashoffset:0;stroke-opacity:1;filter:url(#filter4073)"
       id="path3943"
       d="M 31.50798,44.67503 C 30.735263,45.329238 30.329658,46.324675 29.910253,47.22365 C 29.507971,48.078032 29.307152,48.973693 29.288646,49.911937 C 29.256138,50.453277 29.416506,50.949451 29.60199,51.446942 C 29.77908,51.869054 30.052585,52.251908 30.327297,52.616899 C 30.657205,52.920325 30.965838,53.125232 31.364284,53.32151 C 31.792463,53.536895 32.256168,53.627488 32.716768,53.73931 C 33.217409,53.864691 33.731583,53.905774 34.245358,53.929115 C 34.862689,53.977725 35.474404,53.914638 36.087928,53.854281 C 36.906076,53.746823 37.68013,53.486161 38.437448,53.169332 C 39.055794,52.907391 39.654976,52.602517 40.279483,52.355214 C 41.092498,51.981989 41.667902,51.709561 38.52704,53.37272 C 38.387062,53.446841 38.788259,53.193177 38.913194,53.095817 C 39.072377,52.971768 39.226366,52.841089 39.378862,52.708905 C 39.886703,52.268709 39.956646,52.187 40.439875,51.716735 C 41.021271,51.071923 41.658104,50.43908 42.072926,49.66768 C 42.267541,49.236695 42.252846,48.76389 42.289849,48.303528 C 42.326194,47.942159 42.45243,47.521269 42.249213,47.191063 C 42.025753,46.86183 41.688565,46.591069 41.325337,46.430078 C 40.953942,46.223022 40.576247,46.031982 40.183271,45.868915 C 39.740824,45.65433 39.253922,45.584928 38.769605,45.542856 C 38.363128,45.49918 37.951701,45.53536 37.544984,45.503094 C 37.356778,45.488163 36.880558,45.41164 36.689824,45.382342 C 35.988833,45.322467 35.331597,45.083807 34.679006,44.839546 C 34.526477,44.854688 33.910631,44.912458 33.799422,44.939806 C 32.917403,45.156711 31.982752,45.653069 31.163807,46.045942 C 29.533122,46.977572 31.969818,45.57825 32.374511,45.347346 C 32.512843,45.268418 32.099959,45.508845 31.962647,45.589534 C 31.645455,45.775925 31.334531,45.968867 31.024278,46.166434 C 30.188662,46.632768 29.371201,47.133236 28.51743,47.565436 C 28.341499,47.654496 28.128458,47.326631 28.123771,47.199699 C 28.114058,46.936618 28.220409,46.844689 28.354506,46.637188 C 29.02508,45.976754 29.709458,45.328788 30.390714,44.678621 C 31.414396,43.795844 32.632395,43.244594 33.826108,42.594926 C 33.923662,42.541833 34.543014,42.303813 34.625921,42.287469 C 34.796739,42.253795 34.973418,42.265194 35.147167,42.254056 C 36.019876,42.302397 36.672632,42.632109 37.285414,43.232364 C 37.503315,43.564421 37.839848,43.974298 37.714201,44.404953 C 37.692827,44.47821 37.644759,44.540864 37.610038,44.60882 C 35.278218,46.099993 35.589262,46.228472 33.627774,46.123687 C 33.343622,46.114061 33.026526,46.077242 32.750417,46.175389 C 32.639701,46.214745 32.541602,46.283233 32.436191,46.335151 C 31.815801,46.640708 32.329822,46.370024 31.717389,46.701659 C 35.603404,44.431169 33.170483,45.865189 32.28912,46.428511 C 31.61235,46.81769 31.231129,47.146076 30.763905,47.782362 C 30.364902,48.418851 29.972336,49.020681 29.98311,49.793173 C 30.136484,50.437781 30.690068,50.914655 31.182774,51.320454 C 31.278905,51.385977 31.372185,51.455891 31.471167,51.517022 C 31.639326,51.620877 31.773988,51.709 31.973971,51.718573 C 32.019282,51.720742 32.145567,51.663372 32.105987,51.685535 C 29.738181,53.011413 29.26577,53.542135 29.903774,52.845163 C 29.82197,52.204352 29.447909,51.600555 29.101839,51.065286 C 29.048451,50.980482 28.785439,50.548967 28.699978,50.462582 C 28.33014,50.088741 27.594611,49.786536 27.129499,49.512475 C 26.519903,49.179558 25.913867,48.842695 25.299174,48.519791 C 24.147936,47.824547 24.394651,48.147928 27.311516,46.8657 C 27.407631,46.823448 27.485773,46.98306 27.576006,47.036738 C 27.703845,47.112788 27.835608,47.182042 27.965409,47.254694 C 29.006907,47.840693 30.131857,48.245324 31.236449,48.690697 C 31.881404,48.951273 32.543545,49.201654 33.141237,49.561592 C 33.593435,49.820568 34.057338,50.037159 34.545895,50.215738 C 35.050514,50.454069 35.590297,50.572886 36.141646,50.63139 C 37.153642,50.341186 38.089578,49.844277 39.066643,49.455416 C 39.519816,49.232775 39.992571,49.069054 40.473146,48.91999 C 40.807878,48.816164 40.875496,48.754646 41.217457,48.773646 C 41.312022,48.778901 41.40323,48.810645 41.496117,48.829145 C 41.5641,48.880565 41.646014,48.917495 41.700065,48.983405 C 42.06909,49.433387 41.718343,50.064285 41.50563,50.483511 C 41.105946,51.152138 40.737596,51.839628 40.286522,52.47555 C 39.905663,52.896533 39.587623,53.391643 39.145387,53.755055 C 38.279156,54.46689 37.148865,54.776432 36.138236,55.261915 C 35.387697,55.173352 34.588425,54.975081 33.979158,54.500251 C 33.872483,54.417114 33.781138,54.315989 33.682127,54.223857 C 33.381192,53.900351 33.122729,53.540638 32.857264,53.188238 C 32.803978,53.117502 32.736791,53.05347 32.70405,52.971184 C 32.676383,52.901652 32.618963,52.788092 32.682003,52.747767 C 33.478229,52.238432 34.342365,51.844004 35.172546,51.392122 C 35.616928,51.447821 35.999243,51.732099 36.434498,51.818226 C 36.791486,51.888865 37.132004,51.84345 37.492913,51.825397 C 38.318502,51.659136 39.146178,51.454475 39.908126,51.084185 C 40.204065,50.940364 41.065706,50.460527 40.76508,50.594275 C 39.533955,51.142002 38.754627,51.799035 40.051461,50.805934 C 40.71078,50.241183 41.31669,49.613604 41.795666,48.886974 C 42.003192,48.572147 41.968973,48.643324 42.045586,48.403553 C 42.115672,49.325037 39.672853,49.906237 44.150353,47.446019 C 44.221933,47.406689 44.014328,47.536632 43.949144,47.585843 C 43.802529,47.696529 43.662922,47.816222 43.518278,47.929471 C 42.517377,48.597163 41.418008,49.169766 40.36915,49.71765 C 40.101022,49.85771 39.767533,49.829737 39.482841,49.790751 C 38.888022,49.526917 38.622758,48.912067 38.356688,48.35877 C 38.185633,48.05763 38.099489,47.720714 37.972291,47.401918 C 37.881881,47.175322 37.764844,46.98368 37.702291,46.746904 C 37.687946,46.646013 37.672542,46.489572 37.601483,46.404828 C 37.423346,46.192383 36.936651,45.9969 36.703373,45.872251 C 36.281173,45.673749 35.860504,45.434287 35.377655,45.4341 C 34.830776,45.433889 34.247961,45.632415 33.721972,45.760237 C 32.869948,45.98708 32.004291,46.140426 31.1257,46.206836 C 30.245579,46.164654 29.3876,45.944446 28.512801,45.868527 C 28.087354,45.923211 27.69877,46.102237 27.307198,46.264776 L 29.389951,44.630235 C 29.80717,44.478773 30.218955,44.322733 30.672147,44.334395 C 31.53373,44.442761 32.38823,44.650393 33.262142,44.626899 C 34.121219,44.546311 34.9678,44.386495 35.804084,44.173389 C 36.363482,44.048477 36.952242,43.880689 37.532625,43.927356 C 38.03233,43.967535 38.467537,44.214863 38.907358,44.428401 C 39.353586,44.658828 40.066186,44.881744 40.083121,45.482818 C 40.092508,45.721001 40.221265,45.896295 40.305935,46.116557 C 40.425154,46.426692 40.501294,46.755424 40.673006,47.044839 C 40.893016,47.504066 41.11686,48.096627 41.662418,48.229966 C 41.892387,48.227336 41.915065,48.240695 42.154275,48.173306 C 42.255992,48.144651 42.542203,48.010429 42.452951,48.067009 C 38.936116,50.296447 40.22258,49.352223 41.032777,48.913747 C 41.109231,48.86225 41.189456,48.815952 41.262139,48.759256 C 41.292854,48.735296 41.601353,48.446671 41.645166,48.420663 C 42.467496,47.932517 43.280348,47.424756 44.133767,46.993261 C 44.199783,46.959883 44.287604,47.010546 44.347053,47.054568 C 44.408808,47.100297 44.432533,47.182287 44.475273,47.246146 C 44.377623,47.645292 44.118595,47.985392 43.874965,48.311797 C 43.451913,48.878585 42.960124,49.38633 42.431452,49.85509 C 40.915481,51.043622 41.705209,50.468015 38.791374,52.185962 C 37.744661,52.803087 36.596529,53.19574 35.393268,53.3631 C 34.864064,53.377352 34.715777,53.420303 34.231619,53.30878 C 33.819,53.213736 33.440173,52.951127 32.999936,52.986281 C 33.717613,52.539695 34.45284,52.120149 35.152965,51.646522 C 35.191041,51.620764 35.020862,51.575697 35.017338,51.621532 C 35.011098,51.702698 35.093675,51.765628 35.138589,51.833522 C 35.372888,52.187699 35.634167,52.530473 35.938463,52.827288 C 36.604721,53.424767 37.37307,53.679487 38.266034,53.685759 C 37.634456,54.095125 36.994379,54.491669 36.371299,54.913858 C 36.274172,54.97967 36.587753,54.820381 36.686051,54.756332 C 36.790763,54.688104 36.885743,54.605181 36.976654,54.51942 C 37.297043,54.217176 37.54724,53.850887 37.846363,53.529378 C 38.319591,52.912728 38.67851,52.228176 39.090919,51.570537 C 39.18085,51.404393 39.643405,50.647086 39.437039,50.436101 C 39.403994,50.402317 39.351842,50.395177 39.309244,50.374715 C 38.503231,50.334895 37.756578,50.804859 37.019464,51.066143 C 36.293345,51.362719 36.558553,51.248227 35.821638,51.575046 C 35.223649,51.840252 34.629013,52.160077 33.959682,52.175617 C 33.395552,52.094946 32.852183,51.939014 32.329213,51.709879 C 31.828811,51.524929 31.357577,51.281323 30.894183,51.017386 C 30.308097,50.677059 29.675348,50.417941 29.054465,50.149318 C 27.947888,49.684008 26.82403,49.25422 25.75726,48.700006 C 25.617454,48.629677 25.477305,48.560024 25.33784,48.489019 C 25.248538,48.443553 24.997257,48.418481 25.070973,48.3506 C 27.139449,46.445841 26.474548,46.432794 27.541212,47.053125 C 28.148509,47.382391 28.734079,47.7489 29.341213,48.078701 C 29.885475,48.398179 30.550198,48.650125 30.994052,49.113375 C 31.054758,49.176735 31.353563,49.672211 31.389675,49.730939 C 31.76615,50.329206 32.145368,50.961736 32.322798,51.650567 C 32.330526,51.729063 32.411462,51.842084 32.34598,51.886055 C 31.175115,52.672287 30.562129,53.674595 29.50992,53.118532 C 29.294873,53.004886 29.128537,52.870846 28.932645,52.727036 C 28.481211,52.344147 27.930305,51.843867 27.682843,51.29328 C 27.643727,51.206248 27.633874,51.108833 27.609389,51.016609 C 27.542035,50.111074 27.90773,49.593032 28.346715,48.835337 C 28.784961,48.159304 29.095974,47.78668 29.803317,47.395118 C 31.105041,46.569426 32.419276,45.768142 33.78303,45.043453 C 34.518255,44.673847 34.952093,44.465969 35.791103,44.566748 C 36.093444,44.577791 36.406285,44.603089 36.707832,44.563574 C 37.600068,44.446653 39.196161,43.085595 35.133002,45.656301 C 35.183868,45.62502 35.243477,45.604785 35.2856,45.562459 C 35.550619,45.296161 35.139535,44.854101 35.00715,44.631302 C 34.444406,44.076905 33.844229,43.808906 33.038877,43.824956 C 32.452599,43.931411 32.649474,43.862586 32.113437,44.086373 C 31.994205,44.13615 31.649851,44.312533 31.759167,44.243656 C 35.356423,41.977121 33.560096,43.141445 32.814267,43.68418 C 32.135534,44.306716 31.517203,44.993642 30.808751,45.584675 C 30.670788,45.729079 30.463562,45.913257 30.486298,45.943497 C 30.51521,45.981951 30.637711,45.822877 30.625004,45.903591 C 29.927853,46.312397 29.230702,46.721203 28.533551,47.130008 C 30.077762,46.218362 31.583251,45.232834 33.191745,44.431152 C 34.062757,44.025837 34.960211,43.564547 35.909096,43.371093 C 36.30947,43.289466 36.503913,43.324518 36.898963,43.346944 C 37.53037,43.591619 38.174603,43.797899 38.853758,43.857874 C 39.551513,43.955595 40.248093,43.940307 40.94928,43.99302 C 41.456833,44.052736 41.95605,44.159525 42.421493,44.378799 C 42.811272,44.555177 43.189595,44.750992 43.565198,44.955562 C 43.958949,45.170023 44.330459,45.466626 44.580361,45.842515 C 44.815982,46.253511 44.774474,46.657124 44.697456,47.110224 C 44.627403,47.592736 44.676973,48.093648 44.507501,48.561704 C 44.142928,49.405828 43.412108,50.036714 42.830043,50.728568 C 41.455151,52.10405 40.088691,53.317834 38.179777,54.009434 C 37.568722,54.269525 36.969289,54.556179 36.354694,54.808218 C 35.577196,55.110962 34.778802,55.342095 33.947224,55.440513 C 33.322359,55.496712 32.697372,55.537732 32.06992,55.49129 C 31.546647,55.457035 31.026012,55.392337 30.516974,55.261998 C 30.035822,55.154979 29.563768,55.020272 29.12126,54.797277 C 28.710351,54.588673 28.343824,54.312589 28.018782,53.984972 C 27.734417,53.595052 27.444678,53.196332 27.261452,52.747729 C 27.059827,52.217771 26.880553,51.694054 26.920793,51.114361 C 26.928691,50.095116 27.121929,49.239811 27.54537,48.302463 C 27.823893,47.69306 28.126243,47.101234 28.433354,46.505914 C 28.505718,46.365641 28.564482,46.217747 28.64824,46.083965 C 28.703403,45.995857 28.91995,45.768819 29.001808,45.680777 L 31.50798,44.67503 z"
       transform="matrix(0.8727265,0,0,0.9304723,4.6901681,2.8532495)" />
    <path
       style="opacity:1;fill:#204a87;stroke:#729fcf;stroke-width:0.20000000000000001;stroke-linecap:butt;stroke-linejoin:round;marker-start:none;stroke-miterlimit:4.50000000000000000;stroke-dasharray:none;stroke-dashoffset:0;stroke-opacity:1"
       id="path3909"
       d="M 23.809808,45.476512 C 24.784664,44.747544 25.664891,43.900246 26.547069,43.063857 C 27.27388,42.411911 27.937184,41.690109 28.675011,41.050858 C 29.911452,40.123948 31.278002,39.398503 32.729328,38.897938 C 33.337043,38.698318 33.941408,38.500315 34.561513,38.340662 C 35.414421,38.103558 36.255872,37.807777 37.140892,37.724871 C 37.91508,37.650513 38.637931,37.849201 39.326601,38.184042 C 39.817566,38.422566 40.237131,38.747376 40.628112,39.123134 C 40.977471,39.4968 41.324901,39.873658 41.663965,40.257136 C 41.975075,40.647416 42.359538,40.964696 42.698175,41.32904 C 43.008423,41.63172 43.251043,42.001301 43.584873,42.278276 C 43.889204,42.607146 44.283409,42.822291 44.638968,43.085466 C 44.995201,43.304435 45.339006,43.547203 45.706162,43.748342 C 46.015742,43.90059 46.329417,44.050255 46.631197,44.217759 C 46.814669,44.284298 46.980751,44.386512 47.15538,44.472285 L 44.906981,45.950913 C 44.732813,45.861308 44.559121,45.770426 44.379443,45.692118 C 44.067492,45.53616 43.758179,45.376043 43.449001,45.214554 C 43.085161,44.995376 42.731711,44.75856 42.378781,44.522619 C 42.004551,44.266181 41.618643,44.024551 41.299151,43.697569 C 40.978144,43.395069 40.717618,43.03464 40.404373,42.723468 C 40.064682,42.359375 39.688924,42.030928 39.374604,41.642917 C 39.034728,41.269011 38.699418,40.889906 38.344505,40.530425 C 37.971871,40.17989 37.571162,39.873365 37.105088,39.653836 C 36.439904,39.354415 35.747346,39.207673 35.0147,39.308696 C 34.147653,39.436237 33.314574,39.714721 32.471237,39.946277 C 31.850467,40.125801 31.242133,40.342331 30.626511,40.538597 C 30.321189,40.65108 30.015282,40.76221 29.722148,40.904569 C 29.626525,40.951008 29.348539,41.107375 29.439922,41.053065 C 30.259358,40.566068 32.273458,39.401801 31.14097,40.056781 C 30.363502,40.668782 29.699759,41.412516 28.963069,42.071457 C 28.090975,42.888957 27.220394,43.709571 26.312855,44.487821 L 23.809808,45.476512 z" />
    <path
       sodipodi:type="arc"
       style="opacity:1;fill:#2e3436;stroke:#729fcf;stroke-width:14.42520332;stroke-miterlimit:4.5;stroke-dasharray:none;stroke-opacity:1"
       id="path4079"
       sodipodi:cx="37.81818"
       sodipodi:cy="22.09091"
       sodipodi:rx="20.727272"
       sodipodi:ry="7.181818"
       d="M 58.545452,22.09091 A 20.727272,7.181818 0 1 1 17.090908,22.09091 A 20.727272,7.181818 0 1 1 58.545452,22.09091 z"
       transform="matrix(0.1753075,0,0,0.3800226,1.6429167,5.427835)" />
    <path
       style="opacity:1;fill:#2e3436;stroke:#8f5902;stroke-width:0.94242060000000005;stroke-linecap:butt;stroke-linejoin:miter;stroke-miterlimit:4.50000000000000000;stroke-dasharray:none;stroke-dashoffset:0;stroke-opacity:1"
       id="path4077"
       d="M 1.9429242,12.864 C 2.479876,12.462483 2.9647059,11.995792 3.4506105,11.535107 C 3.8509387,11.176014 4.2162874,10.778447 4.6226833,10.426346 C 5.3037164,9.9158027 6.0564136,9.5162265 6.8558054,9.2405148 C 7.1905354,9.1305639 7.5234204,9.0215036 7.8649749,8.9335665 C 8.3347575,8.8029693 8.7982298,8.640053 9.2856995,8.5943882 C 9.7121226,8.5534319 10.11027,8.6628693 10.48959,8.8473002 C 10.760015,8.9786794 10.991111,9.157585 11.206464,9.364553 C 11.398892,9.5703686 11.590256,9.7779424 11.777013,9.9891623 C 11.948374,10.204129 12.160135,10.378887 12.346657,10.579569 C 12.517543,10.746284 12.651178,10.949851 12.835052,11.102409 C 13.002678,11.28355 13.219806,11.402052 13.415649,11.54701 C 13.611862,11.667617 13.80123,11.801334 14.00346,11.912123 C 14.173977,11.995982 14.346749,12.078416 14.512971,12.170677 C 14.614027,12.207328 14.705505,12.263628 14.801691,12.310872 L 13.56327,13.125301 C 13.467338,13.075946 13.371668,13.025889 13.272703,12.982756 C 13.100879,12.896854 12.930508,12.808661 12.760213,12.719714 C 12.559809,12.59899 12.365128,12.468552 12.170735,12.338595 C 11.964608,12.197349 11.752049,12.064259 11.576074,11.884157 C 11.399263,11.71754 11.255764,11.519015 11.083228,11.347621 C 10.896127,11.147078 10.689158,10.966168 10.51603,10.752452 C 10.328827,10.546504 10.144137,10.337693 9.9486499,10.139691 C 9.7434033,9.9466158 9.5226925,9.7777811 9.265979,9.6568642 C 8.8995945,9.4919429 8.5181328,9.4111172 8.1145908,9.4667607 C 7.6370204,9.5370104 7.1781595,9.6903997 6.7136487,9.8179408 C 6.3717278,9.9168232 6.0366568,10.036087 5.6975716,10.144192 C 5.5293999,10.206147 5.360906,10.267358 5.1994475,10.34577 C 5.1467782,10.371348 4.9936632,10.457475 5.0439971,10.42756 C 5.4953432,10.159322 6.6047117,9.5180431 5.9809361,9.8788068 C 5.5527058,10.215898 5.1871155,10.625547 4.7813459,10.988493 C 4.3009956,11.438773 3.8214787,11.890767 3.3216052,12.319429 L 1.9429242,12.864 z" />
  </g>
</svg>
