<?xml version="1.0" encoding="UTF-8" standalone="no"?>
<!-- Created with Inkscape (http://www.inkscape.org/) -->
<svg
   xmlns:dc="http://purl.org/dc/elements/1.1/"
   xmlns:cc="http://creativecommons.org/ns#"
   xmlns:rdf="http://www.w3.org/1999/02/22-rdf-syntax-ns#"
   xmlns:svg="http://www.w3.org/2000/svg"
   xmlns="http://www.w3.org/2000/svg"
   xmlns:sodipodi="http://sodipodi.sourceforge.net/DTD/sodipodi-0.dtd"
   xmlns:inkscape="http://www.inkscape.org/namespaces/inkscape"
   width="64px"
   height="64px"
   id="svg2383"
   sodipodi:version="0.32"
   inkscape:version="0.46"
   sodipodi:docname="gitso3.svg"
   inkscape:output_extension="org.inkscape.output.svg.inkscape"
   inkscape:export-filename="/home/gerberad/Desktop/gitso3.png"
   inkscape:export-xdpi="90"
   inkscape:export-ydpi="90">
  <defs
     id="defs2385">
    <inkscape:perspective
       sodipodi:type="inkscape:persp3d"
       inkscape:vp_x="-49.09091 : 33.272728 : 1"
       inkscape:vp_y="32 : 1021.3333 : 1"
       inkscape:vp_z="63.454546 : 41.818181 : 1"
       inkscape:persp3d-origin="32 : 21.333333 : 1"
       id="perspective2391" />
  </defs>
  <sodipodi:namedview
     id="base"
     pagecolor="#ffffff"
     bordercolor="#666666"
     borderopacity="1.0"
     inkscape:pageopacity="0.0"
     inkscape:pageshadow="2"
     inkscape:zoom="5.5"
     inkscape:cx="-0.54545455"
     inkscape:cy="42.263636"
     inkscape:current-layer="layer1"
     showgrid="true"
     inkscape:document-units="px"
     inkscape:grid-bbox="true"
     inkscape:window-width="1280"
     inkscape:window-height="800"
     inkscape:window-x="0"
     inkscape:window-y="0" />
  <metadata
     id="metadata2388">
    <rdf:RDF>
      <cc:Work
         rdf:about="">
        <dc:format>image/svg+xml</dc:format>
        <dc:type
           rdf:resource="http://purl.org/dc/dcmitype/StillImage" />
      </cc:Work>
    </rdf:RDF>
  </metadata>
  <g
     id="layer1"
     inkscape:label="Layer 1"
     inkscape:groupmode="layer">
    <path
       sodipodi:type="arc"
       style="fill:#2e3436;stroke:#729fcf;stroke-width:14.42520332;stroke-miterlimit:4.5;stroke-dasharray:none;stroke-opacity:1"
       id="path2395"
       sodipodi:cx="37.81818"
       sodipodi:cy="22.09091"
       sodipodi:rx="20.727272"
       sodipodi:ry="7.181818"
       d="M 58.545452,22.09091 A 20.727272,7.181818 0 1 1 17.090908,22.09091 A 20.727272,7.181818 0 1 1 58.545452,22.09091 z"
       transform="matrix(0.8996204,0,0,1.9022249,-2.4645807,-7.0777943)" />
    <path
       id="path4977"
       style="fill:#204a87;stroke:#729fcf;stroke-width:0.51222664;stroke-linecap:butt;stroke-linejoin:round;marker-start:none;stroke-miterlimit:4.5;stroke-dasharray:none;stroke-dashoffset:0;stroke-opacity:1"
       d="M 0.87501458,25.341592 C 3.4843615,23.555181 5.8404197,21.478791 8.2017001,19.429132 C 10.147118,17.831472 11.922549,16.062621 13.897453,14.496071 C 17.20697,12.224582 20.864745,10.446804 24.749434,9.2201175 C 26.376074,8.7309275 27.993747,8.2457019 29.65355,7.8544548 C 31.936485,7.2734074 34.188753,6.5485655 36.55764,6.3453958 C 38.62987,6.1631739 40.564688,6.6500794 42.408016,7.4706417 C 43.722156,8.0551693 44.845184,8.8511505 45.891704,9.7719845 C 46.826813,10.687692 47.756763,11.611221 48.664318,12.550974 C 49.49705,13.507394 50.526122,14.284923 51.432533,15.177784 C 52.262959,15.919533 52.912367,16.82523 53.805914,17.503985 C 54.6205,18.309915 55.675648,18.83715 56.627355,19.482088 C 57.580866,20.018695 58.50111,20.613622 59.483858,21.106534 C 60.312494,21.479634 61.152092,21.846403 61.959851,22.256889 C 62.450941,22.41995 62.895485,22.670435 63.362905,22.880631 L 57.344732,26.504161 C 56.038736,25.91336 54.736852,25.315688 53.442232,24.699638 C 52.46836,24.162519 51.522298,23.582178 50.577629,23.003979 C 47.620511,20.873492 45.378715,20.419398 41.973165,18.951443 C 37.544736,16.932824 30.354647,15.032673 25.373071,15.920328 C 18.088179,21.568179 13.040739,18.5508 7.5747916,22.918703 L 0.87501458,25.341592 z"
       sodipodi:nodetypes="cccccssccccccccccccccc" />
    <path
       sodipodi:type="arc"
       style="opacity:0.76859502;fill:#2e3436;stroke:#8f5902;stroke-width:0.2;stroke-linecap:butt;stroke-linejoin:round;stroke-miterlimit:4.5;stroke-dasharray:none;stroke-dashoffset:0;stroke-opacity:1"
       id="path4966"
       sodipodi:cx="31.636364"
       sodipodi:cy="35.545456"
       sodipodi:rx="11.454545"
       sodipodi:ry="5.3636365"
       d="M 43.090909,35.545456 A 11.454545,5.3636365 0 1 1 20.181819,35.545456 A 11.454545,5.3636365 0 1 1 43.090909,35.545456 z"
       transform="matrix(1.259179,0,0,1.5337732,-9.4239479,-19.968588)" />
  </g>
</svg>
